<svg width="150" height="24" fill="none" xmlns="http://www.w3.org/2000/svg"><path fill-rule="evenodd" clip-rule="evenodd" d="M102.658 6.838h7.425v15.886a1.06 1.06 0 001.063 1.053h4.181c.584 0 1.063-.474 1.063-1.053V6.84h6.021c.621 0 1.164-.258 1.486-.81l.004-.006.002-.003 2.041-3.497c.618-1.06.247-1.928-.824-1.928h-19.754c-.621 0-1.164.258-1.485.809l-.005.007-.001.002-2.041 3.497c-.619 1.06-.247 1.928.824 1.928zM137.678 24C144.483 24 150 18.627 150 12s-5.517-12-12.322-12c-6.805 0-12.321 5.373-12.321 12s5.516 12 12.321 12zm0-6.142c-3.322 0-6.015-2.623-6.015-5.858 0-3.235 2.693-5.858 6.015-5.858 3.322 0 6.015 2.623 6.015 5.858 0 3.235-2.693 5.858-6.015 5.858z" fill="#E62D41"/><path fill-rule="evenodd" clip-rule="evenodd" d="M36.414 23.777a1.838 1.838 0 001.588-.91L48.628 4.644l.179-.307-12.393 8.763-6.78-11.628-.006-.009c-.31-.532-.808-.869-1.45-.869h-.012l-4.08-.001c-1.236 0-1.81.752-1.274 1.67l12.014 20.602c.317.543.91.91 1.588.91zM53.16 6.838h7.426v15.886a1.06 1.06 0 001.063 1.053h4.18a1.06 1.06 0 001.064-1.053V6.84h6.021c.621 0 1.164-.258 1.486-.81l.004-.006.002-.003 2.04-3.497c.62-1.06.248-1.928-.823-1.928H55.87c-.622 0-1.165.258-1.486.809l-.005.007-.001.002-2.041 3.497c-.619 1.06-.248 1.928.824 1.928zM88.181 24c6.805 0 12.322-5.373 12.322-12S94.986 0 88.181 0C81.376 0 75.86 5.373 75.86 12s5.516 12 12.321 12zm0-6.142c-3.322 0-6.015-2.623-6.015-5.858 0-3.235 2.693-5.858 6.015-5.858 3.322 0 6.015 2.623 6.015 5.858 0 3.235-2.693 5.858-6.015 5.858zM13.803.595a1.838 1.838 0 011.587.91l12.015 20.602c.535.918-.039 1.67-1.275 1.67l-4.08-.002h-.011c-.643 0-1.14-.336-1.45-.869l-.006-.009-.218-.373-6.562-11.253-5.347 9.168-1.001 1.717-.433.741-.005.01c-.31.532-.808.868-1.45.868h-.012l-4.08.002c-1.236 0-1.81-.752-1.274-1.67L12.215 1.505c.316-.543.909-.909 1.588-.91z" fill="#0F4D8F"/><path fill-rule="evenodd" clip-rule="evenodd" d="M10.164 17.51l-.375.643h4.302l-7.26 5.134a3.636 3.636 0 01-.659.376c-.304.125-.522.104-1.054.114H3.982V17.51h6.182z" fill="#0F4D8F"/><path fill-rule="evenodd" clip-rule="evenodd" d="M42.055 3.43l-3.458 5.927L50.99.595H35.761l6.294 2.834z" fill="#E62D41"/></svg>